HIERARCHY
ROOT Hips
{
	OFFSET 0.000000 0.000000 0.000000
	CHANNELS 6 Xposition Yposition Zposition Zrotation Yrotation Xrotation 
	JOINT LeftUpLeg_virtual
	{
		OFFSET 0.000000 0.000000 0.000000
		CHANNELS 3 Zrotation Yrotation Xrotation
		JOINT LeftUpLeg
		{
			OFFSET 10.205400 -3.823500 0.155100
			CHANNELS 3 Zrotation Yrotation Xrotation
			JOINT LeftLeg
			{
				OFFSET 0.708757 -12.982077 0.567790
				CHANNELS 3 Zrotation Yrotation Xrotation
				JOINT LeftFoot
				{
					OFFSET -0.708756 -10.717838 -2.184338
					CHANNELS 3 Zrotation Yrotation Xrotation
					JOINT LeftToeBase
					{
						OFFSET 0.108149 -7.191104 7.560241
						CHANNELS 3 Zrotation Yrotation Xrotation
						End Site
						{
							OFFSET 0.000000 0.000000 0.000000
						}
					}
				}
			}
		}
	}
	JOINT RightUpLeg_virtual
	{
		OFFSET 0.000000 0.000000 0.000000
		CHANNELS 3 Zrotation Yrotation Xrotation
		JOINT RightUpLeg
		{
			OFFSET -10.205400 -3.823500 0.005500
			CHANNELS 3 Zrotation Yrotation Xrotation
			JOINT RightLeg
			{
				OFFSET -0.708756 -12.982134 0.610632
				CHANNELS 3 Zrotation Yrotation Xrotation
				JOINT RightFoot
				{
					OFFSET 0.708754 -10.717769 -1.945823
					CHANNELS 3 Zrotation Yrotation Xrotation
					JOINT RightToeBase
					{
						OFFSET -0.108140 -7.191069 7.372968
						CHANNELS 3 Zrotation Yrotation Xrotation
						End Site
						{
							OFFSET 0.000000 0.000000 0.000000
						}
					}
				}
			}
		}
	}
	JOINT Spine_virtual
	{
		OFFSET 0.000000 0.000000 0.000000
		CHANNELS 3 Zrotation Yrotation Xrotation
		JOINT Spine
		{
			OFFSET 0.000000 6.876099 0.125700
			CHANNELS 3 Zrotation Yrotation Xrotation
			JOINT Spine1
			{
				OFFSET 0.000000 8.022060 0.146608
				CHANNELS 3 Zrotation Yrotation Xrotation
				JOINT Spine2
				{
					OFFSET 0.000000 9.168068 0.167552
					CHANNELS 3 Zrotation Yrotation Xrotation
					JOINT Neck_virtual
					{
						OFFSET 0.000000 0.000000 0.000000
						CHANNELS 3 Zrotation Yrotation Xrotation
						JOINT Neck
						{
							OFFSET 0.000000 10.314075 0.188496
							CHANNELS 3 Zrotation Yrotation Xrotation
							JOINT Head
							{
								OFFSET 0.000000 7.643700 -2.377400
								CHANNELS 3 Zrotation Yrotation Xrotation
								End Site
								{
									OFFSET 0.000000 0.000000 0.000000
								}
							}
						}
					}
					JOINT LeftShoulder_virtual
					{
						OFFSET 0.000000 0.000000 0.000000
						CHANNELS 3 Zrotation Yrotation Xrotation
						JOINT LeftShoulder
						{
							OFFSET 4.392200 8.824978 0.174984
							CHANNELS 3 Zrotation Yrotation Xrotation
							JOINT LeftArm
							{
								OFFSET 8.771219 -2.981674 -0.026999
								CHANNELS 3 Zrotation Yrotation Xrotation
								JOINT LeftForeArm
								{
									OFFSET 8.512804 0.000000 -0.000000
									CHANNELS 3 Zrotation Yrotation Xrotation
									JOINT LeftHand
									{
										OFFSET 18.484802 0.000000 -0.000000
										CHANNELS 3 Zrotation Yrotation Xrotation
										End Site
										{
											OFFSET 0.000000 0.000000 0.000000
										}
									}
								}
							}
						}
					}
					JOINT RightShoulder_virtual
					{
						OFFSET 0.000000 0.000000 0.000000
						CHANNELS 3 Zrotation Yrotation Xrotation
						JOINT RightShoulder
						{
							OFFSET -4.392200 8.824993 0.141379
							CHANNELS 3 Zrotation Yrotation Xrotation
							JOINT RightArm
							{
								OFFSET -8.771282 -2.981682 -0.094208
								CHANNELS 3 Zrotation Yrotation Xrotation
								JOINT RightForeArm
								{
									OFFSET -8.494598 0.000000 0.000000
									CHANNELS 3 Zrotation Yrotation Xrotation
									JOINT RightHand
									{
										OFFSET -18.483803 0.000000 0.000001
										CHANNELS 3 Zrotation Yrotation Xrotation
										End Site
										{
											OFFSET 0.000000 0.000000 0.000000
										}
									}
								}
							}
						}
					}
				}
			}
		}
	}
}
MOTION
Frames: 14
Frame Time: 0.033333
2.727830 35.745468 13.171660 -179.924422 6.719643 179.828458 -2.409896 -2.154571 9.540169 -17.574951 0.994054 -19.020484 16.388581 10.278887 19.772219 0.513971 -0.817806 6.422450 0.000000 0.000000 0.000000 1.481226 -0.962880 9.138924 4.858508 -3.585124 -13.394033 -6.401168 -0.775931 17.467860 3.590554 3.481817 5.260916 0.000000 0.000000 0.000000 1.073312 0.741353 -1.061174 -3.772492 2.167690 -8.051012 0.824657 -3.972987 3.681439 0.009698 0.019269 -0.011662 0.576830 -2.437263 6.757124 -1.217667 2.913669 12.808041 0.000000 0.000000 0.000000 2.012253 -1.548753 3.734485 -8.851567 2.530358 -8.823114 -9.875304 14.346763 -45.034572 -0.325343 -45.953417 -0.413596 0.000000 0.000000 0.000000 -1.311394 -0.816386 3.241838 17.072350 -5.682941 -16.255746 14.657907 -11.143235 -40.764177 1.540651 29.903883 0.254111 0.000000 0.000000 0.000000 
2.708489 35.726303 13.195910 179.995265 6.659930 179.690147 -2.569838 -2.098389 9.375153 -17.937583 1.822538 -19.305914 16.317947 11.086031 19.966981 0.794298 -0.604581 6.856345 0.000000 0.000000 0.000000 1.336954 -1.261241 9.174944 4.906180 -3.518618 -13.492234 -6.443164 -0.792959 17.499114 3.559076 3.407957 5.269802 0.000000 0.000000 0.000000 0.925410 0.634908 -0.853688 -3.706398 2.154612 -8.109703 0.806249 -3.970025 3.642522 -0.018449 -0.011911 -0.129058 0.556082 -2.389763 6.914614 -1.211494 2.754371 12.875724 0.000000 0.000000 0.000000 2.038789 -1.571767 3.829126 -8.817991 2.484734 -8.694380 -9.948906 14.362228 -44.977270 -0.185120 -46.003698 -0.561751 0.000000 0.000000 0.000000 -1.299731 -0.810897 3.363504 17.203944 -5.710188 -16.233553 14.597784 -11.226737 -41.018913 1.573824 29.945431 0.300453 0.000000 0.000000 0.000000 
2.681388 35.709915 13.207824 -179.993844 6.779215 179.708219 -2.562927 -2.283914 9.387394 -18.040143 1.753967 -19.323191 16.370729 11.071219 20.037827 0.988146 -0.541710 6.765935 0.000000 0.000000 0.000000 1.331169 -1.502084 9.133170 4.865790 -3.164502 -13.644473 -6.558802 -0.859366 17.578532 3.763009 3.515246 5.263029 0.000000 0.000000 0.000000 0.944753 0.493742 -0.908334 -3.625403 2.177063 -8.133232 0.774803 -3.928359 3.688720 -0.009328 -0.029734 0.017086 0.529918 -2.349743 6.747079 -1.111633 2.640843 13.042120 0.000000 0.000000 0.000000 1.963471 -1.470682 3.650632 -8.896187 2.517638 -8.720786 -10.051995 14.275537 -44.800713 -0.288195 -46.090072 -0.428090 0.000000 0.000000 0.000000 -1.359611 -0.759007 3.207704 17.386001 -5.731161 -16.172889 14.593186 -11.445745 -40.993528 1.508241 30.153021 0.325679 0.000000 0.000000 0.000000 
2.660561 35.705204 13.216036 -179.902839 6.925843 179.747643 -2.474038 -2.462750 9.407731 -18.083689 1.646876 -19.340137 16.395471 11.010500 20.064837 1.206749 -0.452781 6.699051 0.000000 0.000000 0.000000 1.381548 -1.729770 9.087146 4.858019 -3.103445 -13.762677 -6.546995 -0.595687 17.511565 3.820408 3.464294 5.379264 0.000000 0.000000 0.000000 0.995215 0.385055 -0.938704 -3.498392 2.220533 -8.196454 0.755045 -3.852667 3.600001 -0.003694 -0.029596 -0.025517 0.430675 -2.198966 6.856928 -1.080199 2.417580 13.262440 0.000000 0.000000 0.000000 1.889437 -1.414265 3.729095 -9.043467 2.526916 -8.712691 -10.143424 14.080204 -44.589241 -0.361446 -46.204495 -0.311440 0.000000 0.000000 0.000000 -1.441004 -0.693204 3.269873 17.607441 -5.747318 -16.007781 14.608007 -11.721370 -41.001971 1.457652 30.420498 0.411091 0.000000 0.000000 0.000000 
2.640247 35.711182 13.222437 -179.907538 7.119017 179.776617 -2.508808 -2.502888 9.423685 -18.094337 1.574061 -19.351567 16.453499 10.958247 20.044203 1.389375 -0.398242 6.687854 0.000000 0.000000 0.000000 1.366211 -1.790963 9.037705 4.775249 -2.903189 -13.800623 -6.441322 -0.545498 17.434524 3.956794 3.287506 5.564066 0.000000 0.000000 0.000000 0.999347 0.343699 -0.874379 -3.381285 2.280972 -8.461060 0.725302 -3.753966 3.644546 -0.003347 0.001892 -0.030698 0.381764 -2.123825 6.937534 -0.990916 2.207733 13.530583 0.000000 0.000000 0.000000 1.833959 -1.341623 3.787434 -9.226363 2.490634 -8.687507 -10.218001 13.778262 -44.231940 -0.411369 -46.254731 -0.209517 0.000000 0.000000 0.000000 -1.507821 -0.693269 3.377937 17.846729 -5.626004 -15.792319 14.609165 -11.936730 -41.120812 1.479478 30.652742 0.531919 0.000000 0.000000 0.000000 
2.621626 35.717285 13.226349 -179.980047 7.088254 179.713752 -2.629827 -2.582453 9.440664 -18.128939 1.581662 -19.333148 16.544209 10.953590 20.048649 1.450918 -0.458013 6.700890 0.000000 0.000000 0.000000 1.277407 -1.918888 9.002653 4.847428 -3.307444 -13.805691 -6.458031 -0.077963 17.488559 3.907267 3.432528 5.603932 0.000000 0.000000 0.000000 0.943460 0.242039 -0.821484 -3.301069 2.274307 -8.609938 0.695752 -3.682916 3.615877 -0.011199 -0.007456 -0.039275 0.378779 -2.051323 7.002489 -0.870148 1.991852 13.879162 0.000000 0.000000 0.000000 1.836739 -1.232381 3.777016 -9.391591 2.383060 -8.471712 -10.250594 13.427581 -43.804906 -0.294091 -46.127314 -0.271298 0.000000 0.000000 0.000000 -1.515641 -0.522746 3.431395 18.071053 -5.611012 -15.692629 14.597504 -12.125494 -41.358903 1.630035 30.652694 0.830969 0.000000 0.000000 0.000000 
2.605710 35.724380 13.233177 -179.923616 6.897779 179.698862 -2.622220 -2.628347 9.398905 -18.094810 1.691339 -19.303563 16.513225 11.023233 20.034080 1.396448 -0.562887 6.717224 0.000000 0.000000 0.000000 1.319879 -1.967699 8.958460 4.766757 -3.079763 -13.771441 -6.450343 -0.222596 17.573713 3.877225 3.336952 5.601864 0.000000 0.000000 0.000000 0.917579 0.205163 -0.719032 -3.199194 2.274733 -8.754650 0.716533 -3.621652 3.514325 -0.000848 -0.021728 0.024394 0.344936 -1.906697 7.092073 -0.768650 1.721786 14.224257 0.000000 0.000000 0.000000 1.769048 -1.115325 3.831717 -9.548819 2.215301 -8.401255 -10.312369 13.137868 -43.466166 -0.410421 -45.934945 -0.052503 0.000000 0.000000 0.000000 -1.568037 -0.394859 3.511394 18.184291 -5.448015 -15.438616 14.609923 -12.277985 -41.787118 1.660179 30.551047 0.987530 0.000000 0.000000 0.000000 
2.588329 35.737553 13.238932 -179.989104 6.409920 179.769513 -2.754260 -2.902380 9.260165 -18.077083 1.885695 -19.288893 16.569090 11.205439 19.999622 1.215543 -0.795852 6.920454 0.000000 0.000000 0.000000 1.279776 -2.167364 8.866374 4.845794 -3.191180 -13.746735 -6.472558 0.189536 17.589154 3.709487 3.156021 5.736469 0.000000 0.000000 0.000000 0.800674 0.186060 -0.840434 -3.162295 2.176539 -8.745497 0.719187 -3.604237 3.514348 -0.009611 -0.092957 -0.021226 0.405656 -1.832757 7.104550 -0.612266 1.468382 14.506654 0.000000 0.000000 0.000000 1.794922 -1.018471 3.860966 -9.568323 1.942150 -8.471081 -10.660984 12.961006 -43.102530 -0.406696 -45.766208 0.074547 0.000000 0.000000 0.000000 -1.530421 -0.332179 3.448987 18.233374 -5.335315 -15.047105 14.692160 -12.517118 -42.426161 1.800456 30.419139 1.208252 0.000000 0.000000 0.000000 
2.582684 35.750778 13.250999 179.994145 6.460360 179.703001 -2.799623 -2.603249 9.183006 -18.016265 2.207249 -19.225488 16.603007 11.410920 19.965263 1.021144 -0.992786 7.032526 0.000000 0.000000 0.000000 1.312613 -1.886689 8.758346 4.839830 -3.189848 -13.653824 -6.531726 0.406162 17.860443 3.530322 2.990682 5.591091 0.000000 0.000000 0.000000 0.717208 0.176106 -0.723921 -3.122928 2.270539 -8.724007 0.776111 -3.442605 3.381447 -0.010781 -0.014399 -0.040633 0.444597 -1.684744 7.131040 -0.495086 1.175305 14.790414 0.000000 0.000000 0.000000 1.866869 -0.887925 3.911383 -9.530965 1.647099 -8.559287 -11.393805 12.996679 -43.060002 -0.412135 -45.676200 0.215296 0.000000 0.000000 0.000000 -1.471501 -0.228984 3.427080 18.130174 -5.153375 -14.588376 15.058994 -12.823158 -43.170590 1.834684 30.481987 1.296544 0.000000 0.000000 0.000000 
2.585929 35.763649 13.269786 -179.942672 6.406945 179.750006 -2.744137 -2.571177 9.019263 -17.941718 2.427880 -19.208783 16.582460 11.520531 19.984039 0.858604 -1.119190 7.270440 0.000000 0.000000 0.000000 1.444546 -1.836778 8.582326 4.804252 -3.078735 -13.622735 -6.505419 0.540244 18.142914 3.387127 2.834750 5.548157 0.000000 0.000000 0.000000 0.675572 0.168394 -0.755424 -3.055304 2.229791 -8.488318 0.862557 -3.406531 3.302150 0.000010 -0.048079 -0.035406 0.486732 -1.537642 7.075695 -0.340207 0.942720 14.988000 0.000000 0.000000 0.000000 1.862549 -0.779899 3.799036 -9.473319 1.367520 -8.207320 -12.733377 13.523247 -43.337776 -0.342414 -45.901439 0.309393 0.000000 0.000000 0.000000 -1.464025 -0.093052 3.390840 17.937839 -4.959421 -14.045357 15.717990 -13.149724 -43.872890 1.791389 30.893779 1.262992 0.000000 0.000000 0.000000 
2.610807 35.772316 13.312621 179.986317 6.481621 179.752028 -2.792786 -2.678288 8.877448 -17.891199 2.639191 -19.275893 16.630469 11.545029 20.073011 0.757803 -1.205613 7.441547 0.000000 0.000000 0.000000 1.455175 -1.940154 8.394824 4.742302 -2.968036 -13.766373 -6.433003 0.598038 18.467612 3.321590 2.728457 5.589385 0.000000 0.000000 0.000000 0.571399 0.134685 -0.652161 -3.047813 2.186923 -8.237030 0.921437 -3.357046 3.196974 -0.008519 -0.049482 -0.027528 0.617322 -1.534172 6.996517 -0.178549 0.819539 15.122459 0.000000 0.000000 0.000000 1.954854 -0.728181 3.811294 -9.473769 1.114329 -8.083250 -14.716068 14.075661 -43.834153 -0.190685 -46.258470 0.313300 0.000000 0.000000 0.000000 -1.375846 -0.030366 3.345144 17.759491 -4.757442 -13.386006 16.905005 -13.640326 -44.323071 1.733063 31.826052 1.195091 0.000000 0.000000 0.000000 
2.669538 35.773815 13.397461 -179.958491 6.973707 179.819483 -2.697218 -2.682379 8.788602 -17.852077 2.804413 -19.433244 16.642827 11.471902 20.190917 0.769213 -1.225416 7.587203 0.000000 0.000000 0.000000 1.586423 -1.889255 8.212865 4.689155 -2.826078 -14.096778 -6.278051 0.509373 18.856122 3.361874 2.684141 5.655795 0.000000 0.000000 0.000000 0.496057 0.146843 -0.506489 -2.977172 2.157864 -7.940400 1.002765 -3.339749 3.113642 0.005392 -0.032601 -0.016966 0.634472 -1.473003 6.897563 -0.186390 0.707270 15.171858 0.000000 0.000000 0.000000 1.972595 -0.725182 3.755982 -9.537271 0.936408 -7.893703 -17.417568 14.890190 -44.841162 -0.272116 -46.797820 0.508641 0.000000 0.000000 0.000000 -1.367367 0.002106 3.284726 17.738686 -4.583816 -12.696608 18.774850 -14.241459 -44.374633 1.698528 33.106566 1.142189 0.000000 0.000000 0.000000 
2.751876 35.764374 13.508957 179.981290 7.710973 179.759132 -2.677323 -2.786576 8.788085 -17.822822 3.034118 -19.667455 16.781210 11.257422 20.402561 0.875840 -1.237113 7.542055 0.000000 0.000000 0.000000 1.591211 -2.014219 8.054929 4.650032 -2.760433 -14.590362 -6.059871 0.420064 19.325015 3.528774 2.735730 5.878320 0.000000 0.000000 0.000000 0.350969 0.265910 -0.216882 -2.914962 2.076759 -7.568470 1.013258 -3.425219 3.038059 -0.020006 -0.071171 0.018297 0.675010 -1.544470 6.818111 -0.262018 0.676390 15.275303 0.000000 0.000000 0.000000 2.031775 -0.750475 3.730319 -9.672034 0.859306 -7.616870 -20.927222 15.866379 -46.026029 0.011462 -47.134855 0.299155 0.000000 0.000000 0.000000 -1.290462 -0.028308 3.290566 17.981856 -4.354259 -11.746113 21.434129 -14.987479 -43.420875 1.292723 34.571399 0.721960 0.000000 0.000000 0.000000 
2.858215 35.741478 13.622061 -179.999008 8.805020 179.830084 -2.524938 -2.865773 8.829204 -17.827584 3.269944 -19.997653 16.875593 10.916807 20.676251 1.081058 -1.208898 7.373151 0.000000 0.000000 0.000000 1.688403 -2.004399 7.879359 4.621373 -2.481929 -15.348914 -5.842350 0.099188 19.985337 3.760023 2.857920 6.091194 0.000000 0.000000 0.000000 0.284031 0.137207 -0.035777 -2.742382 2.124567 -7.197436 1.012230 -3.470310 2.995976 -0.011736 -0.030736 -0.023676 0.649351 -1.595181 6.840852 -0.422790 0.691306 15.342379 0.000000 0.000000 0.000000 2.000815 -0.774003 3.797047 -9.950893 0.899747 -7.300882 -25.061064 16.964672 -47.233401 0.130653 -47.045216 0.186783 0.000000 0.000000 0.000000 -1.312539 -0.063120 3.421171 18.559326 -4.076674 -10.790936 24.724646 -15.697808 -41.581601 0.936088 35.794358 0.345482 0.000000 0.000000 0.000000 
